<?xml version="1.0" encoding="UTF-8" standalone="no"?>
<svg
   version="1.1"
   width="128.0"
   height="128.0"
   id="svg262"
   sodipodi:docname="pcl.svg"
   inkscape:version="1.2.2 (b0a84865, 2022-12-01)"
   inkscape:export-filename="pcl-lg.png"
   inkscape:export-xdpi="384"
   inkscape:export-ydpi="384"
   xmlns:inkscape="http://www.inkscape.org/namespaces/inkscape"
   xmlns:sodipodi="http://sodipodi.sourceforge.net/DTD/sodipodi-0.dtd"
   xmlns="http://www.w3.org/2000/svg"
   xmlns:svg="http://www.w3.org/2000/svg"
   xmlns:rdf="http://www.w3.org/1999/02/22-rdf-syntax-ns#"
   xmlns:dc="http://purl.org/dc/elements/1.1/">
  <defs
     id="defs266" />
  <sodipodi:namedview
     id="namedview264"
     pagecolor="#ffffff"
     bordercolor="#666666"
     borderopacity="1.0"
     inkscape:showpageshadow="2"
     inkscape:pageopacity="0.0"
     inkscape:pagecheckerboard="0"
     inkscape:deskcolor="#d1d1d1"
     showgrid="false"
     inkscape:zoom="2.4023311"
     inkscape:cx="53.697844"
     inkscape:cy="78.257322"
     inkscape:window-width="1309"
     inkscape:window-height="456"
     inkscape:window-x="0"
     inkscape:window-y="35"
     inkscape:window-maximized="0"
     inkscape:current-layer="svg262" />
  <metadata
     id="metadata132">
    <rdf:RDF>
      <rdf:Description
         rdf:about="http://likethought.com/opacity/">
        <dc:title>New Image</dc:title>
        <dc:creator>Michael Sweet</dc:creator>
        <dc:rights>Copyright 2010 Apple Inc.</dc:rights>
        <dc:description />
        <dc:format>image/svg+xml</dc:format>
        <dc:language>en</dc:language>
      </rdf:Description>
    </rdf:RDF>
  </metadata>
  <g
     id="g260">
    <title
       id="title146">Printer</title>
    <g
       id="g254">
      <title
         id="title148">Printer</title>
      <path
         d="M 47.003 63.498 L 119.003 63.498 C 119.003 77.665 119.006 91.832 119.003 105.998 C 119.002 110.42 115.339 113.887 111.003 113.998 C 83.003 113.998 55.003 114.002 27.003 113.998 C 22.664 113.998 19.004 110.337 19.003 105.998 C 19.0 89.998 19.0 73.998 19.003 57.998 C 19.003 55.226 20.506 52.605 22.867 51.164 C 28.62 47.654 46.837 49.998 47.003 49.998 L 47.003 63.498 Z"
         fill="rgb(0%, 0%, 0%)"
         stroke="none"
         id="path150" />
      <path
         d="M 36.0 68.5 L 108.0 68.5 C 108.0 82.667 108.003 96.833 108.0 111.0 C 107.999 115.422 104.337 118.889 100.0 119.0 C 72.0 119.0 44.0 119.003 16.0 119.0 C 11.661 119.0 8.0 115.339 8.0 111.0 C 7.997 95.0 7.997 79.0 8.0 63.0 C 8.0 60.228 9.503 57.606 11.865 56.165 C 17.617 52.655 35.834 55.0 36.0 55.0 L 36.0 68.5 Z"
         fill="rgb(24.83%, 24.83%, 24.83%)"
         stroke="none"
         id="path152" />
      <defs
         id="defs161">
        <linearGradient
           id="Gradient600000856d80"
           gradientUnits="userSpaceOnUse"
           x1="127.0"
           y1="119.0"
           x2="110.0"
           y2="63.0">
          <stop
             offset="100.0%"
             stop-color="rgb(36.45%, 36.45%, 36.45%)"
             id="stop154" />
          <stop
             offset="27.762%"
             stop-color="rgb(29.14%, 29.14%, 29.14%)"
             id="stop156" />
          <stop
             offset="0.0%"
             stop-color="rgb(0.83%, 0.83%, 0.83%)"
             id="stop158" />
        </linearGradient>
      </defs>
      <path
         d="M 101.0 119.0 L 114.0 114.0 L 119.0 109.0 L 119.0 63.0 L 108.0 69.0 L 108.0 112.0 L 101.0 119.0 Z"
         fill="url(#Gradient600000856d80)"
         stroke="none"
         id="path163" />
      <defs
         id="defs172">
        <linearGradient
           id="Gradient600000856a00"
           gradientUnits="userSpaceOnUse"
           x1="77.0"
           y1="69.0"
           x2="77.0"
           y2="63.0">
          <stop
             offset="100.0%"
             stop-color="rgb(40.31%, 40.31%, 40.31%)"
             id="stop165" />
          <stop
             offset="47.991%"
             stop-color="rgb(26.36%, 26.36%, 26.36%)"
             id="stop167" />
          <stop
             offset="0.0%"
             stop-color="rgb(36.41%, 36.41%, 36.41%)"
             id="stop169" />
        </linearGradient>
      </defs>
      <path
         d="M 35.0 69.0 L 108.0 69.0 L 119.0 63.0 L 48.0 63.0 L 35.0 69.0 Z"
         fill="url(#Gradient600000856a00)"
         stroke="none"
         id="path174" />
      <defs
         id="defs181">
        <linearGradient
           id="Gradient600000857020"
           gradientUnits="userSpaceOnUse"
           x1="41.5"
           y1="69.0"
           x2="41.5"
           y2="50.0">
          <stop
             offset="0%"
             stop-color="rgb(35.14%, 35.14%, 35.14%)"
             id="stop176" />
          <stop
             offset="100%"
             stop-color="rgb(40.32%, 40.32%, 40.32%)"
             id="stop178" />
        </linearGradient>
      </defs>
      <path
         d="M 47.0 63.0 L 36.0 69.0 L 36.0 56.0 L 47.0 50.0 L 47.0 63.0 Z"
         fill="url(#Gradient600000857020)"
         stroke="none"
         id="path183" />
      <defs
         id="defs190">
        <linearGradient
           id="Gradient600000857480"
           gradientUnits="userSpaceOnUse"
           x1="30.0"
           y1="56.0"
           x2="30.0"
           y2="49.0">
          <stop
             offset="0%"
             stop-color="rgb(41.69%, 41.69%, 41.69%)"
             id="stop185" />
          <stop
             offset="100%"
             stop-color="rgb(33.5%, 33.5%, 33.5%)"
             id="stop187" />
        </linearGradient>
      </defs>
      <path
         d="M 13.0 56.0 L 28.0 49.0 L 47.0 50.0 L 35.0 56.0 L 13.0 56.0 Z"
         fill="url(#Gradient600000857480)"
         stroke="none"
         id="path192" />
      <defs
         id="defs199">
        <linearGradient
           id="Gradient600000854c40"
           gradientUnits="userSpaceOnUse"
           x1="58.0"
           y1="65.5"
           x2="58.0"
           y2="58.5">
          <stop
             offset="0%"
             stop-color="rgb(30.22%, 30.22%, 30.22%)"
             id="stop194" />
          <stop
             offset="100%"
             stop-color="rgb(7.47%, 7.47%, 7.47%)"
             id="stop196" />
        </linearGradient>
      </defs>
      <path
         d="M 37.5 65.5 L 70.5 62.5 L 78.5 58.5 L 46.5 61.5 L 37.5 65.5 Z"
         fill="url(#Gradient600000854c40)"
         stroke="none"
         id="path201" />
      <path
         d="M 37.5 65.5 L 70.5 62.5 L 78.5 58.5 L 46.5 61.5 L 37.5 65.5 Z"
         stroke="rgb(0%, 0%, 0%)"
         stroke-width="1.0"
         stroke-linecap="square"
         stroke-linejoin="miter"
         fill="none"
         id="path203" />
      <defs
         id="defs210">
        <linearGradient
           id="Gradient6000008549a0"
           gradientUnits="userSpaceOnUse"
           x1="43.058"
           y1="62.699"
           x2="39.85"
           y2="57.143">
          <stop
             offset="0%"
             stop-color="rgb(4.03%, 4.03%, 4.03%)"
             id="stop205" />
          <stop
             offset="100%"
             stop-color="rgb(27.94%, 27.94%, 27.94%)"
             id="stop207" />
        </linearGradient>
      </defs>
      <path
         d="M 37.5 58.5 L 37.0 66.0 L 46.0 61.0 L 46.0 54.0 L 37.5 58.5 Z"
         fill="url(#Gradient6000008549a0)"
         stroke="none"
         id="path212" />
      <path
         d="M 9.0 100.0 L 108.0 100.0"
         stroke="rgb(22.63%, 22.63%, 22.63%)"
         stroke-width="1.0"
         stroke-linecap="square"
         stroke-linejoin="miter"
         fill="none"
         id="path214" />
      <defs
         id="defs221">
        <linearGradient
           id="Gradient600000855180"
           gradientUnits="userSpaceOnUse"
           x1="58.5"
           y1="86.0"
           x2="58.5"
           y2="73.0">
          <stop
             offset="0%"
             stop-color="rgb(0%, 0%, 0%)"
             stop-opacity="0.2"
             id="stop216" />
          <stop
             offset="100%"
             stop-color="rgb(0%, 0%, 0%)"
             stop-opacity="0.19"
             id="stop218" />
        </linearGradient>
      </defs>
      <rect
         x="15.0"
         y="73.0"
         width="87.0"
         height="13.0"
         rx="4.0"
         ry="4.0"
         fill="url(#Gradient600000855180)"
         stroke="none"
         transform="translate(58.5, 79.5) skewX(11.25) translate(-58.5, -79.5)"
         id="rect223" />
      <defs
         id="defs230">
        <linearGradient
           id="Gradient600000854b60"
           gradientUnits="userSpaceOnUse"
           x1="57.278"
           y1="83.751"
           x2="57.278"
           y2="72.248">
          <stop
             offset="0%"
             stop-color="rgb(0%, 0%, 0%)"
             stop-opacity="0.5"
             id="stop225" />
          <stop
             offset="100%"
             stop-color="rgb(0%, 0%, 0%)"
             stop-opacity="0.75"
             id="stop227" />
        </linearGradient>
      </defs>
      <path
         d="M 99.161 79.748 C 98.159 81.96 95.957 83.625 93.504 83.748 C 67.297 83.748 41.089 83.755 14.882 83.748 C 8.687 83.746 15.519 72.552 15.645 72.248 L 102.268 72.248 L 99.161 79.748 Z"
         fill="url(#Gradient600000854b60)"
         stroke="none"
         id="path232" />
      <defs
         id="defs239">
        <linearGradient
           id="Gradient600000855340"
           gradientUnits="userSpaceOnUse"
           x1="57.272"
           y1="82.0"
           x2="57.272"
           y2="72.497">
          <stop
             offset="0%"
             stop-color="rgb(47.95%, 47.95%, 47.95%)"
             id="stop234" />
          <stop
             offset="100%"
             stop-color="rgb(33.56%, 33.56%, 33.56%)"
             id="stop236" />
        </linearGradient>
      </defs>
      <path
         d="M 100.265 77.997 C 99.263 80.209 97.062 81.874 94.609 81.997 C 67.942 81.997 41.275 82.004 14.609 81.997 C 9.066 81.995 13.995 73.822 14.544 72.497 L 102.544 72.497 L 100.265 77.997 Z"
         fill="url(#Gradient600000855340)"
         stroke="none"
         id="path241" />
      <defs
         id="defs248">
        <linearGradient
           id="Gradient600000854380"
           gradientUnits="userSpaceOnUse"
           x1="30.207"
           y1="80.0"
           x2="30.207"
           y2="74.0">
          <stop
             offset="0%"
             stop-color="rgb(73.8%, 84.65%, 100%)"
             id="stop243" />
          <stop
             offset="100%"
             stop-color="rgb(38.64%, 40.5%, 66.49%)"
             id="stop245" />
        </linearGradient>
      </defs>
      <rect
         x="24.207"
         y="74.0"
         width="12.0"
         height="6.0"
         rx="2.0"
         ry="2.0"
         fill="url(#Gradient600000854380)"
         stroke="none"
         transform="translate(30.207, 77.0) skewX(-22.5) translate(-30.207, -77.0)"
         id="rect250" />
      <rect
         x="24.207"
         y="74.0"
         width="12.0"
         height="6.0"
         rx="2.0"
         ry="2.0"
         stroke="rgb(0%, 0%, 0%)"
         stroke-opacity="0.5"
         stroke-width="1.0"
         stroke-linecap="square"
         stroke-linejoin="miter"
         fill="none"
         transform="translate(30.207, 77.0) skewX(-22.5) translate(-30.207, -77.0)"
         id="rect252" />
    </g>
    <g
       id="g258">
      <title
         id="title256">Shadow Effect</title>
    </g>
  </g>
  <text
     xml:space="preserve"
     style="font-size:37.7953px;line-height:1.25;font-family:sans-serif;fill:#808080"
     x="20.396858"
     y="115.30467"
     id="text597"><tspan
       sodipodi:role="line"
       id="tspan595"
       x="20.396858"
       y="115.30467">PCL</tspan></text>
</svg>
